<?xml version="1.0" encoding="UTF-8"?>
<svg width="217px" height="40px" viewBox="0 0 217 40" version="1.1" xmlns="http://www.w3.org/2000/svg" xmlns:xlink="http://www.w3.org/1999/xlink">
    <title>Logo</title>
    <g id="Logo" stroke="none" stroke-width="1" fill="none" fill-rule="evenodd">
        <g id="Group-2">
            <text id="Choredom" font-family="WorkSans-Regular_Light, Work Sans" font-size="32" font-weight="300" fill="#000000">
                <tspan x="59" y="31">Choredom</tspan>
            </text>
            <g id="Group">
                <path d="M17.3137085,27.3137085 L25.3137085,27.3137085 C26.418278,27.3137085 27.3137085,28.209139 27.3137085,29.3137085 L27.3137085,37.3137085 L27.3137085,37.3137085 L19.3137085,37.3137085 C18.209139,37.3137085 17.3137085,36.418278 17.3137085,35.3137085 L17.3137085,27.3137085 L17.3137085,27.3137085 Z" id="Rectangle" fill="#2C698D" transform="translate(22.313708, 32.313708) rotate(-45.000000) translate(-22.313708, -32.313708) "></path>
                <path d="M6,11 L14,11 C15.1045695,11 16,11.8954305 16,13 L16,29 C16,30.1045695 15.1045695,31 14,31 L6,31 L6,31 L6,11 Z" id="Rectangle" fill="#BAE8E8" transform="translate(11.000000, 21.000000) rotate(-45.000000) translate(-11.000000, -21.000000) "></path>
                <path d="M23.5771645,11.0502525 L53.5771645,11.0502525 C54.681734,11.0502525 55.5771645,11.945683 55.5771645,13.0502525 L55.5771645,21.0502525 L55.5771645,21.0502525 L21.5771645,21.0502525 L21.5771645,13.0502525 C21.5771645,11.945683 22.472595,11.0502525 23.5771645,11.0502525 Z" id="Rectangle" fill="#272643" transform="translate(38.577164, 16.050253) rotate(-45.000000) translate(-38.577164, -16.050253) "></path>
                <path d="M17.3137085,11.3137085 L25.3137085,11.3137085 C26.418278,11.3137085 27.3137085,12.209139 27.3137085,13.3137085 L27.3137085,21.3137085 L27.3137085,21.3137085 L19.3137085,21.3137085 C18.209139,21.3137085 17.3137085,20.418278 17.3137085,19.3137085 L17.3137085,11.3137085 L17.3137085,11.3137085 Z" id="Rectangle" fill="#E3F6F5" transform="translate(22.313708, 16.313708) scale(1, -1) rotate(-45.000000) translate(-22.313708, -16.313708) "></path>
            </g>
        </g>
    </g>
</svg>