<?xml version="1.0" encoding="UTF-8"?>
<svg width="217px" height="40px" viewBox="0 0 217 40" version="1.1" xmlns="http://www.w3.org/2000/svg" xmlns:xlink="http://www.w3.org/1999/xlink">
    <title>Logo</title>
    <g id="Logo" stroke="none" stroke-width="1" fill="none" fill-rule="evenodd">
        <g id="Group-2">
            <path d="M70.584,31.32 C71.9706667,31.32 73.224,31.096 74.344,30.648 C75.464,30.2 76.424,29.5493333 77.224,28.696 C78.024,27.8426667 78.6266667,26.8293333 79.032,25.656 L79.032,25.656 L77.432,25.048 C76.9626667,26.6053333 76.1306667,27.7946667 74.936,28.616 C73.7413333,29.4373333 72.2906667,29.848 70.584,29.848 C69.0053333,29.848 67.6186667,29.4693333 66.424,28.712 C65.2293333,27.9546667 64.3066667,26.872 63.656,25.464 C63.0053333,24.056 62.68,22.3813333 62.68,20.44 C62.68,18.4773333 63.0106667,16.7973333 63.672,15.4 C64.3333333,14.0026667 65.2666667,12.9253333 66.472,12.168 C67.6773333,11.4106667 69.0693333,11.032 70.648,11.032 C72.376,11.032 73.7733333,11.4106667 74.84,12.168 C75.9066667,12.9253333 76.6853333,14.04 77.176,15.512 L77.176,15.512 L78.744,14.776 C78.36,13.6453333 77.7946667,12.6906667 77.048,11.912 C76.3013333,11.1333333 75.3893333,10.5466667 74.312,10.152 C73.2346667,9.75733333 71.9813333,9.56 70.552,9.56 C68.632,9.56 66.952,10.0026667 65.512,10.888 C64.072,11.7733333 62.9573333,13.0266667 62.168,14.648 C61.3786667,16.2693333 60.984,18.2 60.984,20.44 C60.984,22.68 61.384,24.6106667 62.184,26.232 C62.984,27.8533333 64.104,29.1066667 65.544,29.992 C66.984,30.8773333 68.664,31.32 70.584,31.32 Z M84.845,31 L84.845,21.976 C84.845,20.7173333 85.117,19.6506667 85.661,18.776 C86.205,17.9013333 86.909,17.2293333 87.773,16.76 C88.637,16.2906667 89.5703333,16.056 90.573,16.056 C91.9596667,16.056 93.085,16.4666667 93.949,17.288 C94.813,18.1093333 95.245,19.384 95.245,21.112 L95.245,21.112 L95.245,31 L96.845,31 L96.845,20.6 C96.845,19.2986667 96.5836667,18.2053333 96.061,17.32 C95.5383333,16.4346667 94.8183333,15.7733333 93.901,15.336 C92.9836667,14.8986667 91.9276667,14.68 90.733,14.68 C89.3676667,14.68 88.1623333,14.9946667 87.117,15.624 C86.0716667,16.2533333 85.3143333,17.1333333 84.845,18.264 L84.845,18.264 L84.845,7.64 L83.245,7.64 L83.245,31 L84.845,31 Z M108.906,31.32 C110.399333,31.32 111.716667,30.9893333 112.858,30.328 C113.999333,29.6666667 114.895333,28.712 115.546,27.464 C116.196667,26.216 116.522,24.728 116.522,23 C116.522,21.272 116.196667,19.784 115.546,18.536 C114.895333,17.288 113.999333,16.3333333 112.858,15.672 C111.716667,15.0106667 110.399333,14.68 108.906,14.68 C107.412667,14.68 106.095333,15.0106667 104.954,15.672 C103.812667,16.3333333 102.916667,17.288 102.266,18.536 C101.615333,19.784 101.29,21.272 101.29,23 C101.29,24.728 101.615333,26.216 102.266,27.464 C102.916667,28.712 103.812667,29.6666667 104.954,30.328 C106.095333,30.9893333 107.412667,31.32 108.906,31.32 Z M108.906,29.944 C107.69,29.944 106.634,29.6666667 105.738,29.112 C104.842,28.5573333 104.143333,27.7573333 103.642,26.712 C103.140667,25.6666667 102.89,24.4293333 102.89,23 C102.89,21.5493333 103.140667,20.3066667 103.642,19.272 C104.143333,18.2373333 104.842,17.4426667 105.738,16.888 C106.634,16.3333333 107.69,16.056 108.906,16.056 C110.122,16.056 111.178,16.3333333 112.074,16.888 C112.97,17.4426667 113.668667,18.2373333 114.17,19.272 C114.671333,20.3066667 114.922,21.5493333 114.922,23 C114.922,24.4293333 114.671333,25.6666667 114.17,26.712 C113.668667,27.7573333 112.97,28.5573333 112.074,29.112 C111.178,29.6666667 110.122,29.944 108.906,29.944 Z M122.713,31 L122.713,22.04 C122.713,20.888 122.937,19.8693333 123.385,18.984 C123.833,18.0986667 124.419667,17.4053333 125.145,16.904 C125.870333,16.4026667 126.638333,16.152 127.449,16.152 C128.003667,16.152 128.419667,16.1946667 128.697,16.28 C128.974333,16.3653333 129.230333,16.4826667 129.465,16.632 L129.465,16.632 L129.849,15.224 C129.614333,15.032 129.326333,14.8933333 128.985,14.808 C128.643667,14.7226667 128.259667,14.68 127.833,14.68 C126.574333,14.68 125.497,15.0106667 124.601,15.672 C123.705,16.3333333 123.054333,17.2186667 122.649,18.328 L122.649,18.328 L122.457,15 L121.113,15 L121.113,31 L122.713,31 Z M138.954,31.32 C139.956667,31.32 140.874,31.1706667 141.706,30.872 C142.538,30.5733333 143.274,30.152 143.914,29.608 C144.554,29.064 145.066,28.408 145.45,27.64 L145.45,27.64 L144.17,26.904 C143.679333,27.8426667 142.991333,28.5786667 142.106,29.112 C141.220667,29.6453333 140.159333,29.912 138.922,29.912 C137.727333,29.912 136.676667,29.64 135.77,29.096 C134.863333,28.552 134.159333,27.7573333 133.658,26.712 C133.156667,25.6666667 132.906,24.4293333 132.906,23 L132.911,23.32 L145.61,23.32 C145.624222,23.2204444 145.636074,23.1137778 145.645556,23 L145.658,22.824 C145.668667,22.6426667 145.674,22.456 145.674,22.264 C145.674,20.7706667 145.396667,19.4533333 144.842,18.312 C144.287333,17.1706667 143.498,16.28 142.474,15.64 C141.45,15 140.212667,14.68 138.762,14.68 C137.354,14.68 136.09,15.0106667 134.97,15.672 C133.85,16.3333333 132.964667,17.288 132.314,18.536 C131.663333,19.784 131.338,21.272 131.338,23 C131.338,24.728 131.663333,26.216 132.314,27.464 C132.964667,28.712 133.866,29.6666667 135.018,30.328 C136.17,30.9893333 137.482,31.32 138.954,31.32 Z M144.099,21.88 L132.958,21.88 L132.960744,21.8595041 C133.045901,21.008551 133.230408,20.2418292 133.514264,19.5593388 L133.642,19.272 C134.132667,18.2373333 134.815333,17.448 135.69,16.904 C136.564667,16.36 137.578,16.088 138.73,16.088 C140.394,16.088 141.700667,16.632 142.65,17.72 C143.599333,18.808 144.084667,20.2693333 144.106,22.104 L144.099,21.88 Z M156.485,31.32 C157.487667,31.32 158.421,31.1333333 159.285,30.76 C160.149,30.3866667 160.874333,29.8373333 161.461,29.112 C161.852111,28.6284444 162.155519,28.0785185 162.371222,27.4622222 L162.451,27.211 L162.533,31 L163.973,31 L163.973,7.64 L162.373,7.64 L162.373,18.512 L162.284102,18.2777143 C161.918932,17.3786667 161.376891,16.632 160.65798,16.0377143 L160.437,15.864 C159.381,15.0746667 158.117,14.68 156.645,14.68 C155.258333,14.68 153.999667,15.0053333 152.869,15.656 C151.738333,16.3066667 150.842333,17.2506667 150.181,18.488 C149.519667,19.7253333 149.189,21.2293333 149.189,23 C149.189,24.728 149.503667,26.216 150.133,27.464 C150.762333,28.712 151.631667,29.6666667 152.741,30.328 C153.850333,30.9893333 155.098333,31.32 156.485,31.32 Z M156.677,29.912 C154.863667,29.912 153.429,29.2933333 152.373,28.056 C151.317,26.8186667 150.789,25.1333333 150.789,23 C150.789,20.8666667 151.322333,19.1813333 152.389,17.944 C153.455667,16.7066667 154.906333,16.088 156.741,16.088 C157.850333,16.088 158.826333,16.36 159.669,16.904 C160.511667,17.448 161.173,18.2266667 161.653,19.24 C162.133,20.2533333 162.373,21.464 162.373,22.872 C162.373,24.3013333 162.133,25.5493333 161.653,26.616 C161.173,27.6826667 160.506333,28.4986667 159.653,29.064 C158.799667,29.6293333 157.807667,29.912 156.677,29.912 Z M176.207,31.32 C177.700333,31.32 179.017667,30.9893333 180.159,30.328 C181.300333,29.6666667 182.196333,28.712 182.847,27.464 C183.497667,26.216 183.823,24.728 183.823,23 C183.823,21.272 183.497667,19.784 182.847,18.536 C182.196333,17.288 181.300333,16.3333333 180.159,15.672 C179.017667,15.0106667 177.700333,14.68 176.207,14.68 C174.713667,14.68 173.396333,15.0106667 172.255,15.672 C171.113667,16.3333333 170.217667,17.288 169.567,18.536 C168.916333,19.784 168.591,21.272 168.591,23 C168.591,24.728 168.916333,26.216 169.567,27.464 C170.217667,28.712 171.113667,29.6666667 172.255,30.328 C173.396333,30.9893333 174.713667,31.32 176.207,31.32 Z M176.207,29.944 C174.991,29.944 173.935,29.6666667 173.039,29.112 C172.143,28.5573333 171.444333,27.7573333 170.943,26.712 C170.441667,25.6666667 170.191,24.4293333 170.191,23 C170.191,21.5493333 170.441667,20.3066667 170.943,19.272 C171.444333,18.2373333 172.143,17.4426667 173.039,16.888 C173.935,16.3333333 174.991,16.056 176.207,16.056 C177.423,16.056 178.479,16.3333333 179.375,16.888 C180.271,17.4426667 180.969667,18.2373333 181.471,19.272 C181.972333,20.3066667 182.223,21.5493333 182.223,23 C182.223,24.4293333 181.972333,25.6666667 181.471,26.712 C180.969667,27.7573333 180.271,28.5573333 179.375,29.112 C178.479,29.6666667 177.423,29.944 176.207,29.944 Z M190.014,31 L190.014,21.944 C190.014,20.728 190.280667,19.6826667 190.814,18.808 C191.347333,17.9333333 192.040667,17.2613333 192.894,16.792 C193.747333,16.3226667 194.654,16.088 195.614,16.088 C196.979333,16.088 198.088667,16.4773333 198.942,17.256 C199.795333,18.0346667 200.222,19.2133333 200.222,20.792 L200.222,20.792 L200.222,31 L201.822,31 L201.822,21.784 C201.822,20.6533333 202.072667,19.656 202.574,18.792 C203.075333,17.928 203.752667,17.256 204.606,16.776 C205.459333,16.296 206.387333,16.056 207.39,16.056 C208.776667,16.056 209.891333,16.4453333 210.734,17.224 C211.576667,18.0026667 211.998,19.1813333 211.998,20.76 L211.998,20.76 L211.998,30.968 L213.598,30.968 L213.598,20.6 C213.598,19.2773333 213.326,18.1733333 212.782,17.288 C212.238,16.4026667 211.512667,15.7413333 210.606,15.304 C209.699333,14.8666667 208.691333,14.648 207.582,14.648 C206.686,14.648 205.822,14.808 204.99,15.128 C204.158,15.448 203.432667,15.9013333 202.814,16.488 C202.195333,17.0746667 201.747333,17.7733333 201.47,18.584 C201.086,17.304 200.387333,16.3333333 199.374,15.672 C198.360667,15.0106667 197.160667,14.68 195.774,14.68 C194.472667,14.68 193.294,15 192.238,15.64 C191.182,16.28 190.419333,17.176 189.95,18.328 L189.95,18.328 L189.854,15 L188.414,15 L188.414,31 L190.014,31 Z" id="Choredom" fill="#000000" fill-rule="nonzero"></path>
            <g id="Group">
                <path d="M17.3137085,27.3137085 L25.3137085,27.3137085 C26.418278,27.3137085 27.3137085,28.209139 27.3137085,29.3137085 L27.3137085,37.3137085 L27.3137085,37.3137085 L19.3137085,37.3137085 C18.209139,37.3137085 17.3137085,36.418278 17.3137085,35.3137085 L17.3137085,27.3137085 L17.3137085,27.3137085 Z" id="Rectangle" fill="#2C698D" transform="translate(22.313708, 32.313708) rotate(-45.000000) translate(-22.313708, -32.313708) "></path>
                <path d="M6,11 L14,11 C15.1045695,11 16,11.8954305 16,13 L16,29 C16,30.1045695 15.1045695,31 14,31 L6,31 L6,31 L6,11 Z" id="Rectangle" fill="#BAE8E8" transform="translate(11.000000, 21.000000) rotate(-45.000000) translate(-11.000000, -21.000000) "></path>
                <path d="M23.5771645,11.0502525 L53.5771645,11.0502525 C54.681734,11.0502525 55.5771645,11.945683 55.5771645,13.0502525 L55.5771645,21.0502525 L55.5771645,21.0502525 L21.5771645,21.0502525 L21.5771645,13.0502525 C21.5771645,11.945683 22.472595,11.0502525 23.5771645,11.0502525 Z" id="Rectangle" fill="#272643" transform="translate(38.577164, 16.050253) rotate(-45.000000) translate(-38.577164, -16.050253) "></path>
                <path d="M17.3137085,11.3137085 L25.3137085,11.3137085 C26.418278,11.3137085 27.3137085,12.209139 27.3137085,13.3137085 L27.3137085,21.3137085 L27.3137085,21.3137085 L19.3137085,21.3137085 C18.209139,21.3137085 17.3137085,20.418278 17.3137085,19.3137085 L17.3137085,11.3137085 L17.3137085,11.3137085 Z" id="Rectangle" fill="#E3F6F5" transform="translate(22.313708, 16.313708) scale(1, -1) rotate(-45.000000) translate(-22.313708, -16.313708) "></path>
            </g>
        </g>
    </g>
</svg>